<svg width="307" height="39" viewBox="0 0 307 39" fill="none" xmlns="http://www.w3.org/2000/svg">
<path d="M291.681 30.76C291.895 30.8667 292.108 30.9467 292.321 31C292.561 31.0267 292.815 31.04 293.081 31.04C293.908 31.04 294.588 30.7733 295.121 30.24C295.681 29.68 295.961 28.9333 295.961 28C295.961 27.0933 295.748 26.1467 295.321 25.16C294.895 24.1733 294.335 23.1333 293.641 22.04C293.001 21 292.441 20.0267 291.961 19.12C291.481 18.1867 291.241 17.16 291.241 16.04C291.241 14.8933 291.535 13.8667 292.121 12.96C292.708 12.0533 293.588 11.3333 294.761 10.8C295.935 10.2667 297.415 10 299.201 10C300.321 10 301.401 10.1333 302.441 10.4C303.508 10.6667 304.375 11.1333 305.041 11.8C305.735 12.44 306.081 13.3733 306.081 14.6C306.081 15.1333 305.975 15.68 305.761 16.24C305.548 16.8 305.228 17.2667 304.801 17.64C304.401 17.9867 303.881 18.16 303.241 18.16C302.441 18.16 301.815 17.8533 301.361 17.24C300.908 16.6 300.681 15.7867 300.681 14.8C300.681 13.9467 300.815 13.1867 301.081 12.52C301.375 11.8533 301.668 11.36 301.961 11.04C301.748 10.9333 301.415 10.88 300.961 10.88C300.028 10.88 299.321 11.1467 298.841 11.68C298.388 12.2133 298.148 12.9867 298.121 14C298.121 14.5867 298.228 15.1867 298.441 15.8C298.681 16.3867 298.988 16.9867 299.361 17.6C299.735 18.1867 300.108 18.8 300.481 19.44C301.361 20.9333 301.975 22.16 302.321 23.12C302.695 24.0533 302.881 24.9733 302.881 25.88C302.881 26.9733 302.575 27.9733 301.961 28.88C301.375 29.7867 300.481 30.52 299.281 31.08C298.108 31.6133 296.641 31.88 294.881 31.88C293.628 31.88 292.428 31.72 291.281 31.4C290.161 31.1067 289.241 30.5867 288.521 29.84C287.828 29.0933 287.481 28.0667 287.481 26.76C287.481 25.7733 287.735 24.9333 288.241 24.24C288.721 23.5467 289.375 23.2 290.201 23.2C290.975 23.2 291.601 23.52 292.081 24.16C292.561 24.8 292.801 25.6533 292.801 26.72C292.801 27.5733 292.655 28.36 292.361 29.08C292.095 29.8 291.868 30.36 291.681 30.76Z" fill="#008B8B"/>
<path d="M273.25 29.52C272.503 30.2133 271.597 30.7867 270.53 31.24C269.49 31.6667 268.223 31.88 266.73 31.88C265.53 31.88 264.503 31.6533 263.65 31.2C262.823 30.7467 262.183 30.1333 261.73 29.36C261.303 28.5867 261.09 27.72 261.09 26.76C261.09 25.5333 261.437 24.3467 262.13 23.2C262.823 22.0533 263.797 20.8933 265.05 19.72C266.33 18.52 267.85 17.2533 269.61 15.92C271.37 14.5867 273.303 13.12 275.41 11.52L275.29 11.72C274.303 11.72 273.45 11.9067 272.73 12.28C272.01 12.6533 271.37 13.0933 270.81 13.6C270.277 14.08 269.757 14.5067 269.25 14.88C268.743 15.2533 268.183 15.44 267.57 15.44C267.063 15.44 266.663 15.3467 266.37 15.16C266.077 14.9467 265.743 14.84 265.37 14.84C265.023 14.84 264.757 14.96 264.57 15.2C264.41 15.44 264.237 15.8267 264.05 16.36L263.77 17.2H263.01L263.89 14.28C264.397 12.6 264.983 11.5067 265.65 11C266.343 10.4667 267.037 10.2 267.73 10.2C268.263 10.2 268.743 10.28 269.17 10.44C269.623 10.5733 270.13 10.72 270.69 10.88C271.25 11.04 271.983 11.12 272.89 11.12C273.183 11.12 273.583 11.0933 274.09 11.04C274.623 10.96 275.21 10.7867 275.85 10.52L276.25 9.76001L277.09 10.16C275.863 11.6 274.73 13.0933 273.69 14.64C272.677 16.1867 271.797 17.72 271.05 19.24C270.303 20.76 269.717 22.2 269.29 23.56C268.89 24.92 268.69 26.1467 268.69 27.24C268.69 28.0133 268.823 28.6267 269.09 29.08C269.357 29.5333 269.85 29.76 270.57 29.76C270.97 29.76 271.37 29.6933 271.77 29.56C272.17 29.4267 272.543 29.24 272.89 29L273.25 29.52ZM280.61 28.56C281.277 28.56 281.877 28.3867 282.41 28.04C282.943 27.6933 283.41 27.2267 283.81 26.64C284.237 26.0267 284.583 25.32 284.85 24.52C285.117 23.72 285.33 22.8667 285.49 21.96C285.65 21.0267 285.743 20.0667 285.77 19.08C284.863 18.6533 283.93 18.16 282.97 17.6C282.01 17.04 281.197 16.36 280.53 15.56C279.89 14.7333 279.57 13.7467 279.57 12.6C279.57 12.04 279.783 11.4667 280.21 10.88C280.637 10.2933 281.343 10 282.33 10C283.21 10 283.93 10.3067 284.49 10.92C285.05 11.5067 285.477 12.2533 285.77 13.16C286.09 14.0667 286.303 15 286.41 15.96C286.543 16.8933 286.61 17.72 286.61 18.44C286.61 19.7467 286.477 21.0533 286.21 22.36C285.97 23.6667 285.597 24.8933 285.09 26.04C284.61 27.16 284.01 28.16 283.29 29.04C282.57 29.92 281.73 30.6133 280.77 31.12C279.837 31.6267 278.783 31.88 277.61 31.88C276.703 31.88 275.81 31.72 274.93 31.4C274.05 31.08 273.33 30.52 272.77 29.72C272.21 28.92 271.93 27.8133 271.93 26.4C271.93 25.1467 272.157 23.96 272.61 22.84C273.063 21.6933 273.637 20.68 274.33 19.8C275.023 18.92 275.757 18.2267 276.53 17.72C277.33 17.2133 278.063 16.96 278.73 16.96C279.237 16.96 279.597 17.1067 279.81 17.4C280.05 17.6933 280.197 18.04 280.25 18.44C280.33 18.84 280.37 19.1867 280.37 19.48C280.37 21.2133 279.997 22.88 279.25 24.48C278.53 26.08 277.463 27.52 276.05 28.8L275.77 28.12C276.89 27.0267 277.783 25.7333 278.45 24.24C279.117 22.72 279.45 21.2133 279.45 19.72C279.45 19.16 279.397 18.7067 279.29 18.36C279.183 18.0133 279.023 17.84 278.81 17.84C278.49 17.84 278.183 18.1467 277.89 18.76C277.597 19.3733 277.357 20.16 277.17 21.12C276.983 22.08 276.89 23.1067 276.89 24.2C276.89 25.0533 277.023 25.8133 277.29 26.48C277.583 27.12 278.01 27.6267 278.57 28C279.13 28.3733 279.81 28.56 280.61 28.56Z" fill="#008B8B"/>
<path d="M247.926 22.92C248.779 22.52 249.62 22.04 250.446 21.48C251.273 20.92 252.033 20.3067 252.726 19.64C253.793 18.6 254.66 17.4133 255.326 16.08C256.02 14.7467 256.366 13.3067 256.366 11.76C256.366 11.3867 256.313 11.1333 256.206 11C256.1 10.84 255.939 10.76 255.726 10.76C255.193 10.76 254.606 11.0667 253.966 11.68C253.353 12.2667 252.739 13.0667 252.126 14.08C251.513 15.0667 250.953 16.1867 250.446 17.44C249.966 18.6933 249.566 19.9867 249.246 21.32C248.953 22.6267 248.806 23.8933 248.806 25.12C248.806 26.6667 249.113 27.7067 249.726 28.24C250.339 28.7467 251.139 29 252.126 29C252.659 29 253.459 28.8 254.526 28.4C255.593 28 256.659 27.2667 257.726 26.2L258.366 26.52C257.78 27.4 257.006 28.2533 256.046 29.08C255.086 29.9067 253.953 30.5867 252.646 31.12C251.34 31.6267 249.873 31.88 248.246 31.88C246.993 31.88 245.833 31.6667 244.766 31.24C243.726 30.8133 242.886 30.1867 242.246 29.36C241.633 28.5067 241.326 27.4667 241.326 26.24C241.326 24.6667 241.566 23.1067 242.046 21.56C242.553 20.0133 243.26 18.5467 244.166 17.16C245.073 15.7733 246.153 14.5467 247.406 13.48C248.686 12.3867 250.099 11.5333 251.646 10.92C253.193 10.3067 254.846 10 256.606 10C258.02 10 259.193 10.2933 260.126 10.88C261.086 11.44 261.566 12.32 261.566 13.52C261.566 14.5333 261.3 15.4933 260.766 16.4C260.233 17.28 259.499 18.0933 258.566 18.84C257.633 19.56 256.579 20.2133 255.406 20.8C254.233 21.3867 252.993 21.8933 251.686 22.32C250.406 22.7467 249.14 23.08 247.886 23.32L247.926 22.92Z" fill="#008B8B"/>
<path d="M223.881 31.32H216.801L221.681 13.96C221.814 13.5333 221.894 13.2 221.921 12.96C221.947 12.72 221.907 12.5467 221.801 12.44C221.721 12.3333 221.561 12.28 221.321 12.28C220.921 12.28 220.547 12.4667 220.201 12.84C219.854 13.1867 219.494 13.84 219.121 14.8L218.201 17.24H217.441L218.561 14.12C219.067 12.7067 219.761 11.6667 220.641 11C221.521 10.3333 222.654 10 224.041 10C225.081 10 225.907 10.1733 226.521 10.52C227.134 10.84 227.574 11.28 227.841 11.84C228.107 12.4 228.241 13.0133 228.241 13.68C228.241 14.32 228.161 14.96 228.001 15.6L223.881 31.32ZM224.801 25.6C225.894 22.3467 226.894 19.7067 227.801 17.68C228.734 15.6267 229.627 14.04 230.481 12.92C231.361 11.8 232.254 11.04 233.161 10.64C234.094 10.2133 235.094 10 236.161 10C237.494 10 238.467 10.2667 239.081 10.8C239.694 11.3333 240.014 12.0667 240.041 13C240.094 13.9067 239.934 14.92 239.561 16.04L235.601 27.92C235.334 28.6667 235.294 29.1333 235.481 29.32C235.694 29.5067 235.894 29.6 236.081 29.6C236.321 29.6 236.627 29.4667 237.001 29.2C237.374 28.9067 237.774 28.2 238.201 27.08L239.041 24.84H239.801L238.801 27.76C238.427 28.88 237.921 29.7333 237.281 30.32C236.667 30.9067 235.987 31.3067 235.241 31.52C234.521 31.76 233.801 31.88 233.081 31.88C232.254 31.88 231.534 31.76 230.921 31.52C230.307 31.28 229.827 30.92 229.481 30.44C229.081 29.88 228.854 29.1867 228.801 28.36C228.774 27.5067 228.987 26.3867 229.441 25L232.881 14.64C233.041 14.16 233.134 13.76 233.161 13.44C233.214 13.12 233.214 12.88 233.161 12.72C233.107 12.56 232.987 12.48 232.801 12.48C232.374 12.48 231.867 12.84 231.281 13.56C230.694 14.28 230.067 15.2667 229.401 16.52C228.761 17.7733 228.107 19.2133 227.441 20.84C226.774 22.44 226.134 24.1333 225.521 25.92C224.907 27.68 224.374 29.44 223.921 31.2L224.801 25.6Z" fill="#008B8B"/>
<path d="M215.472 2.44L204.592 31.88H203.272L214.152 2.44H215.472Z" fill="#008B8B"/>
<path d="M201.81 10.64V11.44C201.303 11.5733 200.823 11.8933 200.37 12.4C199.917 12.88 199.477 13.7067 199.05 14.88L193.41 30.72L191.93 33.52L183.21 13.72C182.757 12.68 182.303 12.0533 181.85 11.84C181.423 11.6 181.05 11.48 180.73 11.48V10.64C181.61 10.72 182.517 10.7867 183.45 10.84C184.41 10.8667 185.33 10.88 186.21 10.88C187.303 10.88 188.303 10.8533 189.21 10.8C190.117 10.7467 190.97 10.6933 191.77 10.64V11.48C191.237 11.48 190.73 11.52 190.25 11.6C189.797 11.6533 189.477 11.84 189.29 12.16C189.13 12.4533 189.21 12.9733 189.53 13.72L194.57 25.88L194.21 26.12L197.17 17.84C197.677 16.4 197.89 15.2267 197.81 14.32C197.73 13.3867 197.437 12.6933 196.93 12.24C196.423 11.76 195.73 11.4933 194.85 11.44V10.64C195.277 10.6667 195.717 10.6933 196.17 10.72C196.623 10.72 197.077 10.7333 197.53 10.76C197.983 10.76 198.383 10.76 198.73 10.76C199.263 10.76 199.823 10.7467 200.41 10.72C200.997 10.6933 201.463 10.6667 201.81 10.64ZM193.41 30.72L191.89 35C191.623 35.6667 191.343 36.2267 191.05 36.68C190.783 37.16 190.477 37.5467 190.13 37.84C189.757 38.16 189.277 38.4 188.69 38.56C188.103 38.7467 187.423 38.84 186.65 38.84C186.01 38.84 185.343 38.7333 184.65 38.52C183.983 38.3067 183.423 37.96 182.97 37.48C182.517 37 182.29 36.3867 182.29 35.64C182.29 34.8133 182.583 34.1467 183.17 33.64C183.757 33.16 184.53 32.92 185.49 32.92C186.37 32.92 187.09 33.1334 187.65 33.56C188.21 33.9867 188.49 34.6133 188.49 35.44C188.49 35.9733 188.317 36.48 187.97 36.96C187.65 37.44 187.157 37.8 186.49 38.04C186.623 38.0667 186.783 38.08 186.97 38.08C187.157 38.08 187.303 38.08 187.41 38.08C188.21 38.08 188.917 37.8267 189.53 37.32C190.143 36.8133 190.65 36.0133 191.05 34.92L192.45 30.8L193.41 30.72Z" fill="#1E293B"/>
<path d="M168.448 38.84C166.794 38.84 165.314 38.6933 164.008 38.4C162.728 38.1333 161.714 37.7066 160.968 37.12C160.248 36.56 159.888 35.8666 159.888 35.04C159.888 34.2133 160.261 33.4666 161.008 32.8C161.754 32.16 162.861 31.6533 164.328 31.28L164.688 31.92C164.181 32.32 163.808 32.7466 163.568 33.2C163.354 33.68 163.248 34.1733 163.248 34.68C163.248 35.8 163.754 36.6533 164.768 37.24C165.808 37.8533 167.208 38.16 168.968 38.16C170.168 38.16 171.234 38 172.168 37.68C173.128 37.36 173.874 36.88 174.408 36.24C174.968 35.6 175.248 34.8133 175.248 33.88C175.248 33.08 174.954 32.4 174.368 31.84C173.781 31.3066 172.608 31.04 170.848 31.04H168.368C167.274 31.04 166.314 30.92 165.488 30.68C164.688 30.44 164.061 30.0666 163.608 29.56C163.154 29.0266 162.928 28.36 162.928 27.56C162.928 26.44 163.368 25.4533 164.248 24.6C165.128 23.7466 166.434 22.9466 168.168 22.2L168.568 22.52C168.061 22.84 167.581 23.1866 167.128 23.56C166.701 23.9066 166.488 24.36 166.488 24.92C166.488 25.7733 167.021 26.2 168.088 26.2H172.448C173.914 26.2 175.221 26.3733 176.368 26.72C177.541 27.0666 178.461 27.64 179.128 28.44C179.821 29.2133 180.168 30.2266 180.168 31.48C180.168 32.7866 179.741 34 178.888 35.12C178.061 36.24 176.781 37.1333 175.048 37.8C173.314 38.4933 171.114 38.84 168.448 38.84ZM168.848 22.8C167.328 22.8 165.968 22.5733 164.768 22.12C163.568 21.6666 162.621 20.9733 161.928 20.04C161.234 19.1066 160.888 17.9066 160.888 16.44C160.888 14.9733 161.234 13.7733 161.928 12.84C162.621 11.88 163.568 11.1866 164.768 10.76C165.968 10.3066 167.328 10.08 168.848 10.08C170.368 10.08 171.728 10.3066 172.928 10.76C174.128 11.1866 175.074 11.88 175.768 12.84C176.461 13.7733 176.808 14.9733 176.808 16.44C176.808 17.9066 176.461 19.1066 175.768 20.04C175.074 20.9733 174.128 21.6666 172.928 22.12C171.728 22.5733 170.368 22.8 168.848 22.8ZM168.848 22.08C169.568 22.08 170.128 21.68 170.528 20.88C170.928 20.0533 171.128 18.5733 171.128 16.44C171.128 14.3066 170.928 12.84 170.528 12.04C170.128 11.2133 169.568 10.8 168.848 10.8C168.154 10.8 167.594 11.2133 167.168 12.04C166.768 12.84 166.568 14.3066 166.568 16.44C166.568 18.5733 166.768 20.0533 167.168 20.88C167.594 21.68 168.154 22.08 168.848 22.08ZM175.088 13.52L174.288 13.24C174.688 12.2 175.328 11.3333 176.208 10.64C177.114 9.94664 178.088 9.59998 179.128 9.59998C179.981 9.59998 180.621 9.83997 181.048 10.32C181.501 10.7733 181.728 11.3733 181.728 12.12C181.728 12.92 181.514 13.52 181.088 13.92C180.661 14.2933 180.181 14.48 179.648 14.48C179.194 14.48 178.768 14.32 178.368 14C177.994 13.68 177.781 13.2 177.728 12.56C177.674 11.8933 177.901 11.04 178.408 9.99998L178.688 10.24C177.674 10.6133 176.914 11.0533 176.408 11.56C175.901 12.04 175.461 12.6933 175.088 13.52Z" fill="#1E293B"/>
<path d="M148.39 10.08C150.337 10.08 152.044 10.44 153.51 11.16C154.977 11.88 156.124 13.04 156.95 14.64C157.777 16.24 158.19 18.36 158.19 21C158.19 23.64 157.777 25.76 156.95 27.36C156.124 28.9334 154.977 30.08 153.51 30.8C152.044 31.52 150.337 31.88 148.39 31.88C146.497 31.88 144.804 31.52 143.31 30.8C141.844 30.08 140.684 28.9334 139.83 27.36C139.004 25.76 138.59 23.64 138.59 21C138.59 18.36 139.004 16.24 139.83 14.64C140.684 13.04 141.844 11.88 143.31 11.16C144.804 10.44 146.497 10.08 148.39 10.08ZM148.39 10.88C147.324 10.88 146.43 11.68 145.71 13.28C144.99 14.8534 144.63 17.4267 144.63 21C144.63 24.5734 144.99 27.1467 145.71 28.72C146.43 30.2934 147.324 31.08 148.39 31.08C149.484 31.08 150.377 30.2934 151.07 28.72C151.79 27.1467 152.15 24.5734 152.15 21C152.15 17.4267 151.79 14.8534 151.07 13.28C150.377 11.68 149.484 10.88 148.39 10.88Z" fill="#1E293B"/>
<path d="M134.199 0V27.6C134.199 28.72 134.386 29.48 134.759 29.88C135.159 30.28 135.826 30.48 136.759 30.48V31.32C136.252 31.2933 135.492 31.2667 134.479 31.24C133.466 31.1867 132.439 31.16 131.399 31.16C130.359 31.16 129.306 31.1867 128.239 31.24C127.199 31.2667 126.412 31.2933 125.879 31.32V30.48C126.812 30.48 127.466 30.28 127.839 29.88C128.239 29.48 128.439 28.72 128.439 27.6V4.8C128.439 3.6 128.252 2.72 127.879 2.16C127.532 1.57333 126.866 1.28 125.879 1.28V0.440001C126.732 0.52 127.559 0.56 128.359 0.56C129.452 0.56 130.492 0.52 131.479 0.440001C132.466 0.333335 133.372 0.186667 134.199 0Z" fill="#1E293B"/>
<path d="M114.133 10.08C116.079 10.08 117.786 10.44 119.253 11.16C120.719 11.88 121.866 13.04 122.693 14.64C123.519 16.24 123.933 18.36 123.933 21C123.933 23.64 123.519 25.76 122.693 27.36C121.866 28.9334 120.719 30.08 119.253 30.8C117.786 31.52 116.079 31.88 114.133 31.88C112.239 31.88 110.546 31.52 109.053 30.8C107.586 30.08 106.426 28.9334 105.573 27.36C104.746 25.76 104.333 23.64 104.333 21C104.333 18.36 104.746 16.24 105.573 14.64C106.426 13.04 107.586 11.88 109.053 11.16C110.546 10.44 112.239 10.08 114.133 10.08ZM114.133 10.88C113.066 10.88 112.173 11.68 111.453 13.28C110.733 14.8534 110.373 17.4267 110.373 21C110.373 24.5734 110.733 27.1467 111.453 28.72C112.173 30.2934 113.066 31.08 114.133 31.08C115.226 31.08 116.119 30.2934 116.813 28.72C117.533 27.1467 117.893 24.5734 117.893 21C117.893 17.4267 117.533 14.8534 116.813 13.28C116.119 11.68 115.226 10.88 114.133 10.88Z" fill="#1E293B"/>
<path d="M94.1222 10.08C95.2422 10.08 96.1489 10.2267 96.8422 10.52C97.5622 10.7867 98.1222 11.16 98.5222 11.64C98.9489 12.1467 99.2555 12.8 99.4422 13.6C99.6555 14.4 99.7622 15.48 99.7622 16.84V27.6C99.7622 28.72 99.9489 29.48 100.322 29.88C100.722 30.28 101.389 30.48 102.322 30.48V31.32C101.816 31.2934 101.056 31.2667 100.042 31.24C99.0289 31.1867 98.0289 31.16 97.0422 31.16C96.0289 31.16 95.0289 31.1867 94.0422 31.24C93.0822 31.2667 92.3489 31.2934 91.8422 31.32V30.48C92.6422 30.48 93.2022 30.28 93.5222 29.88C93.8422 29.48 94.0022 28.72 94.0022 27.6V15.16C94.0022 14.4934 93.9355 13.92 93.8022 13.44C93.6689 12.9334 93.4289 12.5467 93.0822 12.28C92.7355 11.9867 92.2155 11.84 91.5222 11.84C90.8022 11.84 90.1355 12.04 89.5222 12.44C88.9355 12.84 88.4555 13.4 88.0822 14.12C87.7355 14.8134 87.5622 15.6 87.5622 16.48V27.6C87.5622 28.72 87.7222 29.48 88.0422 29.88C88.3889 30.28 88.9489 30.48 89.7222 30.48V31.32C89.2422 31.2934 88.5355 31.2667 87.6022 31.24C86.6955 31.1867 85.7489 31.16 84.7622 31.16C83.7489 31.16 82.7089 31.1867 81.6422 31.24C80.5755 31.2667 79.7755 31.2934 79.2422 31.32V30.48C80.1755 30.48 80.8289 30.28 81.2022 29.88C81.6022 29.48 81.8022 28.72 81.8022 27.6V15C81.8022 13.8 81.6155 12.92 81.2422 12.36C80.8955 11.7734 80.2289 11.48 79.2422 11.48V10.64C80.0955 10.72 80.9222 10.76 81.7222 10.76C82.8422 10.76 83.8822 10.72 84.8422 10.64C85.8289 10.5334 86.7355 10.3867 87.5622 10.2V13.8C88.2289 12.44 89.1355 11.48 90.2822 10.92C91.4289 10.36 92.7089 10.08 94.1222 10.08Z" fill="#1E293B"/>
<path d="M63.0261 0.039978V13.8C63.6927 12.4133 64.5861 11.4533 65.7061 10.92C66.8527 10.36 68.1327 10.08 69.5461 10.08C70.6927 10.08 71.6127 10.2266 72.3061 10.52C72.9994 10.7866 73.5461 11.16 73.9461 11.64C74.3994 12.1466 74.7194 12.8 74.9061 13.6C75.1194 14.4 75.2261 15.48 75.2261 16.84V27.6C75.2261 28.72 75.4127 29.48 75.7861 29.88C76.1861 30.28 76.8527 30.48 77.7861 30.48V31.32C77.2794 31.2933 76.5061 31.2666 75.4661 31.24C74.4527 31.1866 73.4661 31.16 72.5061 31.16C71.4661 31.16 70.4527 31.1866 69.4661 31.24C68.5061 31.2666 67.7861 31.2933 67.3061 31.32V30.48C68.1061 30.48 68.6661 30.28 68.9861 29.88C69.3061 29.48 69.4661 28.72 69.4661 27.6V15.16C69.4661 14.4933 69.3994 13.92 69.2661 13.44C69.1327 12.9333 68.8794 12.5466 68.5061 12.28C68.1594 11.9866 67.6527 11.84 66.9861 11.84C66.2661 11.84 65.5994 12.04 64.9861 12.44C64.3994 12.8133 63.9194 13.3466 63.5461 14.04C63.1994 14.7333 63.0261 15.5333 63.0261 16.44V27.6C63.0261 28.72 63.1861 29.48 63.5061 29.88C63.8261 30.28 64.3861 30.48 65.1861 30.48V31.32C64.7061 31.2933 63.9994 31.2666 63.0661 31.24C62.1327 31.1866 61.1861 31.16 60.2261 31.16C59.1861 31.16 58.1327 31.1866 57.0661 31.24C56.0261 31.2666 55.2394 31.2933 54.7061 31.32V30.48C55.6394 30.48 56.2927 30.28 56.6661 29.88C57.0661 29.48 57.2661 28.72 57.2661 27.6V4.83998C57.2661 3.63998 57.0794 2.75998 56.7061 2.19998C56.3594 1.61331 55.6927 1.31998 54.7061 1.31998V0.47998C55.5594 0.55998 56.3861 0.59998 57.1861 0.59998C58.2794 0.59998 59.3194 0.55998 60.3061 0.47998C61.2927 0.373313 62.1994 0.226645 63.0261 0.039978Z" fill="#1E293B"/>
<path d="M45.4625 10.08C46.5025 10.08 47.4491 10.2 48.3025 10.44C49.1825 10.6534 49.9025 10.9334 50.4625 11.28C51.1558 11.7067 51.6892 12.24 52.0625 12.88C52.4625 13.4934 52.6625 14.2133 52.6625 15.04C52.6625 15.9734 52.3691 16.7467 51.7825 17.36C51.1958 17.9467 50.4358 18.24 49.5025 18.24C48.5691 18.24 47.8225 17.9733 47.2625 17.44C46.7025 16.9067 46.4225 16.1867 46.4225 15.28C46.4225 14.4267 46.6891 13.72 47.2225 13.16C47.7558 12.5733 48.3691 12.1867 49.0625 12C48.8491 11.7334 48.5291 11.5067 48.1025 11.32C47.6758 11.1334 47.1958 11.04 46.6625 11.04C45.8358 11.04 45.1025 11.28 44.4625 11.76C43.8491 12.24 43.3291 12.9067 42.9025 13.76C42.4758 14.6133 42.1425 15.6134 41.9025 16.76C41.6891 17.9067 41.5825 19.16 41.5825 20.52C41.5825 22.5733 41.8358 24.1867 42.3425 25.36C42.8758 26.5333 43.5425 27.36 44.3425 27.84C45.1691 28.32 46.0225 28.56 46.9025 28.56C47.4091 28.56 47.9558 28.48 48.5425 28.32C49.1558 28.16 49.7691 27.84 50.3825 27.36C51.0225 26.88 51.6091 26.2 52.1425 25.32L52.8225 25.56C52.5292 26.5467 52.0491 27.5334 51.3825 28.52C50.7158 29.5067 49.8491 30.32 48.7825 30.96C47.7158 31.5734 46.4092 31.88 44.8625 31.88C43.1292 31.88 41.5558 31.5067 40.1425 30.76C38.7558 29.9867 37.6358 28.8134 36.7825 27.24C35.9558 25.64 35.5425 23.5867 35.5425 21.08C35.5425 18.68 35.9691 16.6667 36.8225 15.04C37.7025 13.3867 38.8891 12.1467 40.3825 11.32C41.8758 10.4934 43.5691 10.08 45.4625 10.08Z" fill="#1E293B"/>
<path d="M25.2263 10.08C27.5729 10.08 29.4129 10.7733 30.7463 12.16C32.0796 13.5467 32.7463 15.8134 32.7463 18.96H19.5863L19.5063 18.2H27.7063C27.7329 16.8934 27.6529 15.6934 27.4663 14.6C27.2796 13.48 26.9863 12.5867 26.5863 11.92C26.1863 11.2533 25.6529 10.92 24.9863 10.92C24.0529 10.92 23.2529 11.5067 22.5863 12.68C21.9463 13.8533 21.5596 15.8 21.4263 18.52L21.5463 18.76C21.5196 19.08 21.4929 19.4134 21.4663 19.76C21.4663 20.1067 21.4663 20.4667 21.4663 20.84C21.4663 22.68 21.7196 24.1734 22.2263 25.32C22.7596 26.4667 23.4263 27.3067 24.2263 27.84C25.0263 28.3467 25.8396 28.6 26.6663 28.6C27.2263 28.6 27.7996 28.52 28.3863 28.36C28.9996 28.1734 29.6129 27.8533 30.2263 27.4C30.8396 26.92 31.4129 26.2534 31.9463 25.4L32.6663 25.64C32.3463 26.6534 31.8396 27.64 31.1463 28.6C30.4529 29.56 29.5729 30.3467 28.5063 30.96C27.4396 31.5734 26.1596 31.88 24.6663 31.88C22.8529 31.88 21.2529 31.4934 19.8663 30.72C18.4796 29.9467 17.3863 28.7734 16.5863 27.2C15.8129 25.6267 15.4263 23.6267 15.4263 21.2C15.4263 18.72 15.8396 16.6533 16.6663 15C17.5196 13.3467 18.6796 12.12 20.1463 11.32C21.6396 10.4934 23.3329 10.08 25.2263 10.08Z" fill="#1E293B"/>
<path d="M9.12 4.08002V10.64H13.84V11.44H9.12V27.6C9.12 28.4 9.26667 28.9734 9.56 29.32C9.85333 29.64 10.2933 29.8 10.88 29.8C11.36 29.8 11.84 29.6267 12.32 29.28C12.8 28.9067 13.2267 28.28 13.6 27.4L14.28 27.76C13.8533 28.96 13.2 29.9467 12.32 30.72C11.4667 31.4934 10.2933 31.88 8.8 31.88C7.92 31.88 7.14667 31.76 6.48 31.52C5.81333 31.3067 5.25333 30.9734 4.8 30.52C4.21333 29.9334 3.82667 29.2134 3.64 28.36C3.45333 27.48 3.36 26.3467 3.36 24.96V11.44H0V10.64H3.36V5.36002C4.48 5.36002 5.50667 5.26668 6.44 5.08002C7.4 4.86668 8.29333 4.53335 9.12 4.08002Z" fill="#1E293B"/>
</svg>
