<svg width="24" height="25" viewBox="0 0 24 25" fill="none" xmlns="http://www.w3.org/2000/svg">
<path d="M18.031 17.4568L22.3137 21.7395L20.8995 23.1537L16.6168 18.871C15.0769 20.103 13.124 20.84 11 20.84C6.032 20.84 2 16.808 2 11.84C2 6.872 6.032 2.84 11 2.84C15.968 2.84 20 6.872 20 11.84C20 13.964 19.263 15.9169 18.031 17.4568ZM16.0247 16.7148C17.2475 15.4546 18 13.7356 18 11.84C18 7.9725 14.8675 4.84 11 4.84C7.1325 4.84 4 7.9725 4 11.84C4 15.7075 7.1325 18.84 11 18.84C12.8956 18.84 14.6146 18.0875 15.8748 16.8647L16.0247 16.7148Z" fill="#475569"/>
</svg>
